Coordinates
version=1
nRows=7
nColumns=46
inDegrees=yes

Units are S.I. units (second, meters, Newtons, ...)
Angles are in degrees.

endheader
time	pelvis_tilt	pelvis_list	pelvis_rotation	pelvis_tx	pelvis_ty	pelvis_tz	bb_angle	bb_tx	bb_ty	bb_tz	hip_flexion_r	hip_adduction_r	hip_rotation_r	knee_angle_r	knee_angle_r_beta	ankle_angle_r	subtalar_angle_r	mtp_angle_r	crank_angle_r	hip_flexion_l	hip_adduction_l	hip_rotation_l	knee_angle_l	knee_angle_l_beta	ankle_angle_l	subtalar_angle_l	mtp_angle_l	crank_angle_l	lumbar_extension	lumbar_bending	lumbar_rotation	arm_flex_r	arm_add_r	arm_rot_r	elbow_flex_r	pro_sup_r	wrist_flex_r	wrist_dev_r	arm_flex_l	arm_add_l	arm_rot_l	elbow_flex_l	pro_sup_l	wrist_flex_l	wrist_dev_l
      5.00500000	    -19.11190984	      5.83448802	      3.62946209	      0.37679922	      1.20506762	     -0.20145541	      0.00000000	      0.50000000	      0.00000000	      0.25000000	     28.65399419	    -12.55543502	    -11.26161696	     29.45572098	      0.51409931	    -18.87844893	      7.92876331	      0.00000000	      0.00000000	     74.33625293	     -9.00236457	     -0.94850241	    107.66373834	      1.87908672	      9.07723084	      8.81649901	      0.00000000	      0.00000000	    -58.75781079	     -5.36309433	     -4.69561037	     50.76890209	    -28.32686009	     28.44732433	     73.56870413	     48.47383378	      0.00000000	      0.00000000	     68.38145561	    -36.20454093	     54.11877358	     70.56907836	     51.18391987	      0.00000000	      0.00000000
      5.01000000	    -19.21042392	      5.78236139	      3.96982287	      0.37655833	      1.20632823	     -0.20199380	      0.00000000	      0.50000000	      0.00000000	      0.25000000	     28.30634162	    -12.71826265	    -11.48668820	     29.73350055	      0.51894748	    -19.54769539	      7.83604072	      0.00000000	      0.00000000	     75.10200550	     -8.43118167	     -0.88725555	    107.27048591	      1.87222317	      9.29229838	      8.20235028	      0.00000000	      0.00000000	    -58.86944935	     -5.32521737	     -4.86198153	     50.89819953	    -28.31698901	     28.42149067	     73.28100683	     48.42366568	      0.00000000	      0.00000000	     68.97951737	    -36.00158485	     54.44569788	     70.73827478	     51.23030545	      0.00000000	      0.00000000
      5.01500000	    -19.37566875	      5.69945500	      4.23480235	      0.37629376	      1.20771910	     -0.20263016	      0.00000000	      0.50000000	      0.00000000	      0.25000000	     28.17503705	    -12.83935828	    -11.52036150	     30.18377563	      0.52680627	    -20.08575650	      7.75560151	      0.00000000	      0.00000000	     75.81481486	     -7.92224288	     -0.86256169	    106.72472684	      1.86269788	      9.56762977	      7.76131817	      0.00000000	      0.00000000	    -58.97169020	     -5.33217361	     -4.95253875	     51.07458922	    -28.34053337	     28.35614612	     73.07364258	     48.38204753	      0.00000000	      0.00000000	     69.45625168	    -35.82465241	     54.61284129	     70.87314080	     51.25905437	      0.00000000	      0.00000000
      5.02000000	    -19.49897359	      5.65496070	      4.53569370	      0.37606712	      1.20937750	     -0.20334275	      0.00000000	      0.50000000	      0.00000000	      0.25000000	     28.14899489	    -13.02637529	    -11.58853753	     30.97353210	      0.54059012	    -20.32783929	      7.30647091	      0.00000000	      0.00000000	     76.33937427	     -7.35441426	     -0.90892630	    105.99994147	      1.85004799	      9.67004008	      7.65989377	      0.00000000	      0.00000000	    -59.14382480	     -5.29999817	     -5.04652313	     51.27536895	    -28.39882948	     28.25164585	     72.76609930	     48.32088626	      0.00000000	      0.00000000	     69.92793487	    -35.63114283	     54.90576565	     71.00261397	     51.30008856	      0.00000000	      0.00000000
      5.02500000	    -19.66623229	      5.67401569	      4.71498557	      0.37574764	      1.21116528	     -0.20382509	      0.00000000	      0.50000000	      0.00000000	      0.25000000	     28.34511606	    -13.17369571	    -11.32445928	     31.98199734	      0.55819116	    -20.71165832	      6.86403530	      0.00000000	      0.00000000	     76.72825593	     -6.82466362	     -1.04108429	    105.10093867	      1.83435743	      9.85590457	      6.77430440	      0.00000000	      0.00000000	    -59.23519209	     -5.48733025	     -5.20458345	     51.60394292	    -28.08164677	     28.08621876	     71.64609344	     48.14284864	      0.00000000	      0.00000000	     71.62984024	    -35.82573857	     57.51483395	     70.62088746	     51.47332128	      0.00000000	      0.00000000
      5.03000000	    -19.73246424	      5.55971635	      4.97106337	      0.37555089	      1.21308244	     -0.20457050	      0.00000000	      0.50000000	      0.00000000	      0.25000000	     28.51201774	    -13.24053861	    -11.21451344	     33.20052285	      0.57945844	    -20.97045991	      6.18786557	      0.00000000	      0.00000000	     76.88819476	     -6.18672127	     -0.92344918	    104.06580191	      1.81629088	     10.41802898	      6.78370853	      0.00000000	      0.00000000	    -59.51801198	     -5.39809652	     -5.21259534	     51.81450818	    -28.20083651	     27.96174702	     71.55714358	     48.11754947	      0.00000000	      0.00000000	     71.99914687	    -35.65536293	     57.51175583	     70.76176044	     51.48504475	      0.00000000	      0.00000000
      5.03500000	    -19.88944574	      5.53770521	      5.12937377	      0.37538522	      1.21503979	     -0.20516232	      0.00000000	      0.50000000	      0.00000000	      0.25000000	     28.96184380	    -13.31426074	    -10.76239219	     34.66241617	      0.60497329	    -20.98252155	      5.26310848	      0.00000000	      0.00000000	     76.91233084	     -5.63323469	     -0.94380199	    102.82761886	      1.79468051	     10.95474060	      6.64171407	      0.00000000	      0.00000000	    -59.71446872	     -5.48014870	     -5.29361948	     51.94544019	    -28.30525542	     27.83391559	     71.39133196	     48.08394500	      0.00000000	      0.00000000	     72.44379024	    -35.46894553	     57.67416973	     70.90618050	     51.51195185	      0.00000000	      0.00000000
